<svg id="Calque_1" data-name="Calque 1" xmlns="http://www.w3.org/2000/svg" width="7.2cm" height="7.2cm" viewBox="0 0 203 203.2"><rect x="124.8" y="145.1" width="5" height="22.71" fill="#fff"/><path d="M146.3,94.9V139c0,1.9,0,3.8.1,5.6a3,3,0,0,0,2.2,3.2l5.7,1.2,3.4.5,1.5.6a1.3,1.3,0,0,1,.9,1.4,1.3,1.3,0,0,1-1.1,1.3,29.9,29.9,0,0,1-4.3,1c-6.8,1-13.7,2.1-20.4,3.7l-4.2.8h-1.9c-1.7-.1-2.3-.8-2.3-2.5v-5.6a3.3,3.3,0,0,0-.5-1.5c-.6-.3-1.1.2-1.6.6s-2.9,2.5-4.4,3.6a27.1,27.1,0,0,1-13.7,5.2,111.9,111.9,0,0,1-14.2.2c-10.6-.2-21.3-.4-32-.1l-10.3.2a19.9,19.9,0,0,1-3.4-.5,1.5,1.5,0,0,1-1.5-1.5,1.8,1.8,0,0,1,1.3-1.9,23.3,23.3,0,0,1,3.8-.8l10.4-2.1,1.2-.5a3.3,3.3,0,0,0,2.1-3,26.1,26.1,0,0,0,0-2.8c0-5.8-.1-11.6-.2-17.4-.1-8.8-.1-17.6-.2-26.5l-.3-26.3c-.1-5.3-.1-10.5-.1-15.8,0-1.9-.5-2.8-2.3-3.3a51.5,51.5,0,0,0-6.8-1.5l-6.1-1a7,7,0,0,1-2-.8,1.6,1.6,0,0,1,.2-2.9l2.6-.6H89.7c2.2-.1,4.3,0,6.4.1a6.5,6.5,0,0,1,1.9.4c.7.2,1.3.6,1.3,1.4a1.7,1.7,0,0,1-1.1,1.8,14.7,14.7,0,0,1-2.8.8L84.6,55.4l-2.1.8a2.8,2.8,0,0,0-1.8,2.5c0,.4-.1.7-.1,1.1V87c0,1.2.4,1.5,1.5,1l.7-.3a36.8,36.8,0,0,1,16.5-4.6,41.8,41.8,0,0,1,22.2,4.6l3.1,1.6,1,.5c.9.3,1.3,0,1.3-.9a2.8,2.8,0,0,0,.1-.9c-.1-9.6-.1-19.1-.2-28.7,0-1-.1-2-.2-3a3.1,3.1,0,0,0-2.4-2.8l-5-1-5-.8-1-.4a1.5,1.5,0,0,1,0-2.9,12.5,12.5,0,0,1,2.6-.7c7.9-1.1,15.8-2.4,23.6-4.2a18.3,18.3,0,0,1,4.7-.5c1.5,0,2.1.8,2.1,2.3a16.9,16.9,0,0,1,.1,2.3Zm-20.4,28.5V108a25.6,25.6,0,0,0-.3-3.9,15.3,15.3,0,0,0-7.2-11,16.6,16.6,0,0,0-7.8-2.4,16.8,16.8,0,0,0-14,4.8,23.9,23.9,0,0,0-6.4,11.9,53.6,53.6,0,0,0-.8,22.9,29.2,29.2,0,0,0,4,11c3.5,5.6,8.6,8.5,15.3,8.2a27.5,27.5,0,0,0,11.5-3.2,18,18,0,0,0,4.3-3.1,5.1,5.1,0,0,0,1.4-3.6C125.8,134.2,125.9,128.8,125.9,123.4Z"/></svg>