<svg id="Calque_1" data-name="Calque 1" xmlns="http://www.w3.org/2000/svg" width="7.2cm" height="7.2cm" viewBox="0 0 203 203.2"><path d="M79.2,87.4c2-1.1,3.8-2.3,5.7-3.1,13.2-5.8,26.2-5.2,39,1.2l4.7,2.6c1.8,1,2.3.7,2.3-1.3,0-10.2,0-20.4-.1-30.6,0-2.4,0-4.8-.2-7.1s-1-3.8-3.7-4.4l-9-1.6a5.7,5.7,0,0,1-2.2-.7,2.8,2.8,0,0,1-1.3-1.8,2.3,2.3,0,0,1,1.3-1.7,34.8,34.8,0,0,1,6.4-1.4c8.3-1.1,16.5-3.1,24.6-5a13.3,13.3,0,0,1,2.8-.3,2.7,2.7,0,0,1,3,3,4.8,4.8,0,0,1,0,1.2V151.8c0,.8.1,1.6.1,2.4.2,2.6,1.1,3.7,3.7,4.3s4.9.9,7.4,1.4a11.9,11.9,0,0,1,2.7.7,2.9,2.9,0,0,1,1.5,2,2.3,2.3,0,0,1-1.6,1.7c-2.3.7-4.8,1.1-7.2,1.6L138.4,170c-1.6.3-3.2.7-4.9.9s-3.7-.8-3.7-3.4,0-4.6-.1-6.9-.7-1.9-2-.9a11.2,11.2,0,0,0-2,1.8,30.3,30.3,0,0,1-21.8,9.3c-8.7.1-17.4-.3-26.1-.3l-32.5.4c-2.4,0-4.7-.2-7.1-.4a4.5,4.5,0,0,1-1.9-.5,1.8,1.8,0,0,1-.3-3.3,8.4,8.4,0,0,1,3-1.1l12-2,.8-.2c4.7-1.3,5.5-2.5,5.2-7.3V55.2c0-1.2.1-2.5.1-3.8s-.8-3.6-3.2-4.2S46.8,46,43.2,45.4l-4.8-.8c-1.2-.3-2.2-1-2.1-2.4s1.2-1.8,2.3-1.9a29.6,29.6,0,0,1,5.2-.5H81c4.6,0,9.3-.1,14,0a6.6,6.6,0,0,1,2.8.5c.7.4,1.6,1.2,1.6,1.8A2.6,2.6,0,0,1,98,44a7.4,7.4,0,0,1-3.3.9l-9.3,1.2-1.2.2c-4.2,1-5.1,2.1-5.1,6.2.1,11.2.1,22.3.1,33.4Zm50.6,41.1V110.8a40.7,40.7,0,0,0-.6-6c-1.5-7.6-5.9-12.9-13.8-14.7s-20-.9-26.5,6.9a31.1,31.1,0,0,0-5.1,8.8,66.5,66.5,0,0,0-2.7,27.3c.5,5.7,1.4,12,4.2,17.2s7,12.5,14.7,12.8c9.5,1.7,24-5.5,28.2-10.5a6.5,6.5,0,0,0,1.6-4.4Z"/><rect x="124.8" y="145.1" width="5" height="22.71" fill="#fff"/><path d="M124.6,162.5s3.7-3.5,3.7-5.9c.1-4-4.2-.5-4.2-.5Z"/></svg>