<svg id="Calque_1" data-name="Calque 1" xmlns="http://www.w3.org/2000/svg" viewBox="0 0 300 300">
  <g>
    <path d="M187,113.9v36.2c0,18.1-12,32.8-29.8,36.5-20.4,4.2-41.1-10.8-43.3-31.5a34,34,0,0,1-.3-4.5V76.7a36.5,36.5,0,0,1,29.2-35.9C165.1,36,186.7,53.1,187,76c.1,12.6,0,25.2,0,37.9Z"/>
    <path d="M102.5,260.7V246h40.3a8.1,8.1,0,0,0,.1-1.5c.1-8.1,0-16.2.1-24.3,0-1.1-.3-1.5-1.5-1.7-30.3-3.6-55.3-28.3-59-58.6-1-8-.7-16.1-1-24.2h15v1.9c.1,6.3-.2,12.6.4,18.8,2.1,23.5,21,43.5,44.4,47.2A53.9,53.9,0,0,0,201.6,167a51.3,51.3,0,0,0,2.5-15.5V135.7h14.6a4.3,4.3,0,0,0,.1.5c-.1,7.1.2,14.2-.4,21.3-2.4,27.9-23.1,52.1-50.2,59.2-3.1.8-6.3,1.3-9.4,1.9l-1.1.2V246h40.4v14.7Z"/>
  </g>
</svg>
